<svg xmlns="http://www.w3.org/2000/svg" viewBox="0 0 1440 200">
  <path fill="#0d1117" fill-opacity="1" d="M0,0L1440,0L1440,200L0,200Z"></path>
  <path fill="#0a192f" fill-opacity="1" d="M0,96L48,112C96,128,192,160,288,149.3C384,139,480,85,576,74.7C672,64,768,96,864,112C960,128,1056,128,1152,112C1248,96,1344,64,1392,48L1440,32L1440,200L1392,200C1344,200,1248,200,1152,200C1056,200,960,200,864,200C768,200,672,200,576,200C480,200,384,200,288,200C192,200,96,200,48,200L0,200Z"></path>
  <path fill="#00d2ff" fill-opacity="0.3" d="M0,64L48,80C96,96,192,128,288,138.7C384,149,480,139,576,117.3C672,96,768,64,864,69.3C960,75,1056,117,1152,133.3C1248,149,1344,139,1392,133.3L1440,128L1440,200L1392,200C1344,200,1248,200,1152,200C1056,200,960,200,864,200C768,200,672,200,576,200C480,200,384,200,288,200C192,200,96,200,48,200L0,200Z"></path>
</svg>
